<svg fill="none" xmlns="http://www.w3.org/2000/svg">
  <symbol id="history" viewBox="0 0 26 26">
    <path fill="currentColor" d="M13.7061 5.99805H12.2969C12.168 5.99805 12.0625 6.10352 12.0625 6.23243V14.2979C12.0625 14.374 12.0977 14.4443 12.1592 14.4883L17.002 18.0244C17.1074 18.1006 17.2539 18.0801 17.3301 17.9746L18.168 16.832C18.2471 16.7236 18.2236 16.5772 18.1182 16.5039L13.9404 13.4834V6.23243C13.9404 6.10352 13.835 5.99805 13.7061 5.99805ZM20.1455 8.20118L24.7393 9.32325C24.8858 9.3584 25.0293 9.24708 25.0293 9.09766L25.0527 4.36622C25.0527 4.16993 24.8272 4.0586 24.6748 4.18165L20.0576 7.78809C20.0227 7.81509 19.9962 7.85138 19.981 7.89281C19.9658 7.93423 19.9626 7.97909 19.9718 8.02225C19.981 8.0654 20.0021 8.10508 20.0329 8.13674C20.0636 8.16839 20.1027 8.19073 20.1455 8.20118ZM25.0586 17.0225L23.3975 16.4512C23.3396 16.4313 23.2762 16.4349 23.2209 16.4612C23.1656 16.4875 23.1228 16.5344 23.1016 16.5918C23.0459 16.7412 22.9873 16.8877 22.9258 17.0342C22.4043 18.2676 21.6572 19.3779 20.7022 20.3301C19.7577 21.2775 18.6384 22.0327 17.4063 22.5537C16.1299 23.0934 14.7579 23.3704 13.3721 23.3682C11.9717 23.3682 10.6152 23.0957 9.3379 22.5537C8.10579 22.0327 6.98648 21.2775 6.042 20.3301C5.08985 19.3779 4.34278 18.2676 3.81837 17.0342C3.2817 15.7571 3.00674 14.3853 3.00978 13C3.00978 11.5996 3.28224 10.2402 3.82423 8.9629C4.34571 7.7295 5.09278 6.61915 6.04786 5.667C6.99234 4.71959 8.11165 3.96443 9.34376 3.44336C10.6152 2.90137 11.9746 2.62891 13.375 2.62891C14.7754 2.62891 16.1318 2.90137 17.4092 3.44336C18.6413 3.96443 19.7606 4.71959 20.7051 5.667C21.0039 5.96876 21.2852 6.28223 21.543 6.61329L23.2949 5.24219C20.9893 2.29493 17.4004 0.399417 13.3692 0.402347C6.34962 0.405277 0.7129 6.10645 0.783213 13.1289C0.853525 20.0283 6.46388 25.5977 13.375 25.5977C18.8096 25.5977 23.4385 22.1524 25.2022 17.3272C25.2461 17.2041 25.1817 17.0664 25.0586 17.0225Z" />
  </symbol>

  <symbol id="moon" viewBox="0 0 24 24">
    <path fill="currentColor" fill-rule="evenodd" clip-rule="evenodd" d="M8.03239 6.23186C6.2001 7.49474 5 9.60797 5 11.9999C5 15.8659 8.13401 18.9999 12 18.9999C14.3918 18.9999 16.5049 17.8 17.7678 15.9678C17.5146 15.9893 17.2585 16.0002 17 16.0002C12.0294 16.0002 8 11.9708 8 7.00019C8 6.7415 8.01094 6.48524 8.03239 6.23186ZM3 11.9999C3 8.04173 5.55459 4.68279 9.10211 3.47693L10.3707 4.74561C10.1306 5.45177 10 6.20969 10 7.00019C10 10.8662 13.134 14.0002 17 14.0002C17.7904 14.0002 18.5482 13.8696 19.2542 13.6296L20.5228 14.8983C19.3168 18.4455 15.958 20.9999 12 20.9999C7.02944 20.9999 3 16.9705 3 11.9999Z" />
  </symbol>

  <symbol id="sun" viewBox="0 0 24 24">
    <path fill="currentColor" fill-rule="evenodd" clip-rule="evenodd" d="M13 2V3V5V6H11V5V3V2H13ZM2 11H3H5H6V13H5H3H2V11ZM19 11H18V13H19H21H22V11H21H19ZM13 18V19V21V22H11V21V19V18H13ZM17.6568 19.0711L18.364 19.7782L19.7782 18.364L19.0711 17.6569L17.6568 16.2427L16.9497 15.5356L15.5355 16.9498L16.2426 17.6569L17.6568 19.0711ZM7.05023 8.46451L6.34312 7.7574L4.92891 6.34319L4.2218 5.63608L5.63602 4.22187L6.34313 4.92897L7.75734 6.34319L8.46445 7.05029L7.05023 8.46451ZM19.0711 6.34309L19.7782 5.63599L18.364 4.22177L17.6568 4.92888L16.2426 6.34309L15.5355 7.0502L16.9497 8.46441L17.6568 7.75731L19.0711 6.34309ZM8.46445 16.9497L7.75734 17.6568L6.34312 19.071L5.63602 19.7781L4.2218 18.3639L4.92891 17.6568L6.34313 16.2426L7.05023 15.5355L8.46445 16.9497ZM10 12C10 10.8954 10.8954 10 12 10C13.1046 10 14 10.8954 14 12C14 13.1046 13.1046 14 12 14C10.8954 14 10 13.1046 10 12ZM12 8C9.79086 8 8 9.79086 8 12C8 14.2091 9.79086 16 12 16C14.2091 16 16 14.2091 16 12C16 9.79086 14.2091 8 12 8Z" />
  </symbol>

  <symbol id="delete" viewBox="0 0 27 18">
    <path fill="currentColor" fill-rule="evenodd" clip-rule="evenodd" d="M9.08582 0H9.50003H25.5H26.5V1V17V18H25.5H9.50003H9.08582L8.79292 17.7071L0.792922 9.70711L0.0858154 9L0.792922 8.29289L8.79292 0.292893L9.08582 0ZM9.91424 2L2.91424 9L9.91424 16H24.5V2H9.91424ZM13.5 4.58578L14.2071 5.29288L16.5 7.58578L18.7929 5.29289L19.5 4.58579L20.9142 6L20.2071 6.70711L17.9142 9L20.2071 11.2929L20.9142 12L19.5 13.4142L18.7929 12.7071L16.5 10.4142L14.2071 12.7071L13.5 13.4142L12.0858 12L12.7929 11.2929L15.0858 9L12.7929 6.7071L12.0858 5.99999L13.5 4.58578Z" />
  </symbol>
</svg>
